<?xml version="1.0"?>
<svg xmlns="http://www.w3.org/2000/svg" xmlns:xlink="http://www.w3.org/1999/xlink" xmlns:svgjs="http://svgjs.com/svgjs" version="1.1" width="512" height="512" x="0" y="0" viewBox="0 0 74 74" style="enable-background:new 0 0 512 512" xml:space="preserve" class=""><g><g xmlns="http://www.w3.org/2000/svg" id="color_line" data-name="color line"><path d="m53.549 8.92v51.018h-40.358v-51.018a4.86 4.86 0 0 1 4.866-4.866h30.626a4.86 4.86 0 0 1 4.866 4.866z" fill="#34cb79" data-original="#89c5cd" style="" class=""/><path d="m53.549 12.368v-3.448a4.86 4.86 0 0 0 -4.866-4.866h-30.626a4.86 4.86 0 0 0 -4.866 4.866v3.448z" fill="#e1e6e9" data-original="#e1e6e9" style="" class=""/><g fill="#323c6b"><path d="m28.39 8.946h-1.177a.5.5 0 0 1 0-1h1.177a.5.5 0 0 1 0 1z" fill="#323c6b" data-original="#323c6b" style="" class=""/><path d="m33.958 8.946h-1.176a.5.5 0 0 1 0-1h1.177a.5.5 0 0 1 0 1z" fill="#323c6b" data-original="#323c6b" style="" class=""/><path d="m39.527 8.946h-1.176a.5.5 0 0 1 0-1h1.177a.5.5 0 0 1 0 1z" fill="#323c6b" data-original="#323c6b" style="" class=""/></g><path d="m53.549 59.938v7.134a4.86 4.86 0 0 1 -4.866 4.866h-30.626a4.86 4.86 0 0 1 -4.866-4.866v-7.134z" fill="#e1e6e9" data-original="#e1e6e9" style="" class=""/><path d="m49.782 12.687h3.518v47.255h-3.518z" fill="#34cb79" data-original="#6eaaad" style="" class=""/><path d="m53.3 8.922v3.45h-2.83v-3.45a4.861 4.861 0 0 0 -4.86-4.87h2.82a4.863 4.863 0 0 1 4.87 4.87z" fill="#d5d6db" data-original="#d5d6db" style="" class=""/><path d="m53.3 59.942v7.13a4.863 4.863 0 0 1 -4.87 4.87h-2.82a4.861 4.861 0 0 0 4.86-4.87v-7.13z" fill="#d5d6db" data-original="#d5d6db" style="" class=""/><path d="m35.282 66.438h-3.824a.5.5 0 1 1 0-1h3.823a.5.5 0 0 1 0 1z" fill="#323c6b" data-original="#323c6b" style="" class=""/><path d="m42.37 31.152-4.113-4.113a2.144 2.144 0 0 0 -1.516-.628h-10.855a2.144 2.144 0 0 0 -2.144 2.144v18.3a2.144 2.144 0 0 0 2.144 2.145h14.968a2.144 2.144 0 0 0 2.146-2.145v-14.187a2.144 2.144 0 0 0 -.63-1.516z" fill="#eeefee" data-original="#eeefee" style="" class=""/><path d="m43 32.672v14.18a2.147 2.147 0 0 1 -2.15 2.148h-14.96a2.13 2.13 0 0 1 -2.06-1.55 2.1 2.1 0 0 0 .25.01h14.97a2.145 2.145 0 0 0 2.14-2.15v-14.188a2.111 2.111 0 0 0 -.63-1.51l-3.05-3.06a2.166 2.166 0 0 1 .75.49l4.11 4.11a2.158 2.158 0 0 1 .63 1.52z" fill="#e1e6e9" data-original="#e1e6e9" style="" class=""/><rect fill="#34cb79" height="9.331" rx="1.015" width="13.219" x="26.761" y="36.842" data-original="#fcd462" style="" class=""/><path d="m39.98 37.852v7.31a1.016 1.016 0 0 1 -1.02 1.01h-11.18a1.016 1.016 0 0 1 -1.02-1.01v-.61h10.39a1.024 1.024 0 0 0 1.02-1.02v-6.69h.79a1.016 1.016 0 0 1 1.02 1.01z" fill="#34cb79" data-original="#f7be56" style="" class=""/><g fill="#323c6b"><path d="m39.979 42.1h-8.2a.5.5 0 0 1 0-1h8.2a.5.5 0 0 1 0 1z" fill="#323c6b" data-original="#323c6b" style="" class=""/><path d="m31.784 46.673a.5.5 0 0 1 -.5-.5v-9.331a.5.5 0 0 1 1 0v9.331a.5.5 0 0 1 -.5.5z" fill="#323c6b" data-original="#323c6b" style="" class=""/><path d="m56.374 46.673a.5.5 0 0 1 -.5-.5v-1.02a.5.5 0 0 1 1 0v1.02a.5.5 0 0 1 -.5.5z" fill="#323c6b" data-original="#323c6b" style="" class=""/><path d="m10.366 12.613a.5.5 0 0 1 -.5-.5v-.765a.5.5 0 0 1 1 0v.765a.5.5 0 0 1 -.5.5z" fill="#323c6b" data-original="#323c6b" style="" class=""/><path d="m10.366 9.643a.5.5 0 0 1 -.5-.5v-.226a8.22 8.22 0 0 1 4.757-7.433.5.5 0 1 1 .42.907 7.218 7.218 0 0 0 -4.177 6.525v.226a.5.5 0 0 1 -.5.501z" fill="#323c6b" data-original="#323c6b" style="" class=""/><path d="m56.374 43.247a.5.5 0 0 1 -.5-.5v-9.81a.5.5 0 0 1 1 0v9.81a.5.5 0 0 1 -.5.5z" fill="#323c6b" data-original="#323c6b" style="" class=""/><path d="m53.549 60.438h-40.358a.5.5 0 0 1 -.5-.5v-51.018a5.372 5.372 0 0 1 5.366-5.366h30.627a5.372 5.372 0 0 1 5.365 5.366v51.018a.5.5 0 0 1 -.5.5zm-39.858-1h39.358v-50.518a4.371 4.371 0 0 0 -4.366-4.366h-30.626a4.371 4.371 0 0 0 -4.366 4.366z" fill="#323c6b" data-original="#323c6b" style="" class=""/><path d="m40.854 49.5h-14.968a2.647 2.647 0 0 1 -2.644-2.644v-18.3a2.647 2.647 0 0 1 2.644-2.644h10.855a2.63 2.63 0 0 1 1.87.774l4.113 4.114a2.626 2.626 0 0 1 .774 1.87v14.185a2.647 2.647 0 0 1 -2.644 2.645zm-14.968-22.589a1.646 1.646 0 0 0 -1.644 1.644v18.3a1.646 1.646 0 0 0 1.644 1.645h14.968a1.646 1.646 0 0 0 1.646-1.645v-14.187a1.634 1.634 0 0 0 -.481-1.163l-4.119-4.113a1.658 1.658 0 0 0 -1.163-.481z" fill="#323c6b" data-original="#323c6b" style="" class=""/><path d="m38.964 46.673h-11.188a1.517 1.517 0 0 1 -1.515-1.515v-7.3a1.517 1.517 0 0 1 1.515-1.515h11.188a1.517 1.517 0 0 1 1.515 1.515v7.3a1.517 1.517 0 0 1 -1.515 1.515zm-11.188-9.331a.516.516 0 0 0 -.515.515v7.3a.516.516 0 0 0 .515.515h11.188a.516.516 0 0 0 .515-.515v-7.3a.516.516 0 0 0 -.515-.515z" fill="#323c6b" data-original="#323c6b" style="" class=""/><path d="m53.549 12.868h-40.358a.5.5 0 0 1 -.5-.5v-3.448a5.372 5.372 0 0 1 5.366-5.366h30.627a5.372 5.372 0 0 1 5.365 5.366v3.448a.5.5 0 0 1 -.5.5zm-39.858-1h39.358v-2.948a4.371 4.371 0 0 0 -4.366-4.366h-30.626a4.371 4.371 0 0 0 -4.366 4.366z" fill="#323c6b" data-original="#323c6b" style="" class=""/><path d="m48.684 72.438h-30.627a5.372 5.372 0 0 1 -5.366-5.366v-7.134a.5.5 0 0 1 .5-.5h40.358a.5.5 0 0 1 .5.5v7.134a5.372 5.372 0 0 1 -5.365 5.366zm-34.993-12v6.634a4.371 4.371 0 0 0 4.366 4.366h30.627a4.371 4.371 0 0 0 4.366-4.366v-6.634z" fill="#323c6b" data-original="#323c6b" style="" class=""/></g><path d="m19.155 56.928h-.688a.81.81 0 0 1 0-1.62h.688a.81.81 0 0 1 0 1.62z" fill="#ffffff" data-original="#ffffff" style="" class=""/><path d="m33.784 56.928h-10.884a.81.81 0 0 1 0-1.62h10.884a.81.81 0 0 1 0 1.62z" fill="#ffffff" data-original="#ffffff" style="" class=""/></g></g></svg>
